:FULLY-SPECIFIED
:FORCE-ALL-JOINTS-BE-3DOF
:DEGREES
204
root -2.90095 16.3056 -36.1109 3.76878 0.668174 -2.9232
lfemur -23.9002 6.72541 -8.17382
ltibia 48.6728 -0 0
lfoot -23.8105 0.398113 3.18407e-06
ltoes -9.81311 0 0
rfemur -23.8447 -7.56415 14.6549
rtibia 50.7488 -0 0
rfoot -27.644 2.06482 -2.20303e-05
rtoes -8.29301 0 0
lowerback 7.29154 1.95383 -1.69578
upperback -3.74829 2.53875 1.30333
thorax -8.18601 1.37384 1.9643
lowerneck -3.43374 -3.91946 -6.54045
upperneck 6.90207 -5.29172 6.02517
head 3.25327 -2.60504 2.95825
lclavicle -1.30616e-14 4.64699e-16 1.26381e-34
lhumerus -26.5511 -1.88776 88.7926
lradius 24.3169 -0 0
lwrist -31.3751 0 0
lhand -28.2302 30.1131 1.06781e-06
lfingers 7.12502 -0 0
lthumb -1.60829 60.0868 1.03438e-06
rclavicle -1.30616e-14 4.64699e-16 1.26381e-34
rhumerus -32.2226 2.00128 -79.9353
rradius 30.4522 -0 0
rwrist 3.12588 0 0
rhand -20.0832 -26.8207 -3.6701e-07
rfingers 7.12502 -0 0
rthumb 6.25949 -56.7082 -3.4631e-07
205
root -2.90127 16.3052 -36.1107 3.76871 0.668872 -2.92424
lfemur -23.9041 6.72807 -8.17116
ltibia 48.6817 -0 0
lfoot -23.8152 0.397811 8.13594e-07
ltoes -9.81655 0 0
rfemur -23.8481 -7.56833 14.657
rtibia 50.7575 -0 0
rfoot -27.6492 2.06672 -5.62917e-06
rtoes -8.29484 0 0
lowerback 7.29137 1.95376 -1.69568
upperback -3.74787 2.53868 1.30354
thorax -8.18546 1.3738 1.96449
lowerneck -3.43544 -3.91982 -6.5402
upperneck 6.90448 -5.2922 6.02504
head 3.25444 -2.60525 2.95812
lclavicle -1.30639e-14 4.88761e-16 3.22929e-35
lhumerus -26.5495 -1.88945 88.7936
lradius 24.3176 -0 0
lwrist -31.3743 0 0
lhand -28.2298 30.1141 2.72847e-07
lfingers 7.12502 -0 0
lthumb -1.60785 60.0878 2.64306e-07
rclavicle -1.30639e-14 4.88761e-16 3.22929e-35
rhumerus -32.2204 2.00313 -79.9377
rradius 30.4548 -0 0
rwrist 3.12459 0 0
rhand -20.0828 -26.8211 -9.37785e-08
rfingers 7.12502 -0 0
rthumb 6.25983 -56.7086 -8.84892e-08
206
root -2.90138 16.305 -36.1106 3.76868 0.66911 -2.9246
lfemur -23.9054 6.72898 -8.17025
ltibia 48.6848 0 0
lfoot -23.8168 0.397708 0
ltoes -9.81773 0 0
rfemur -23.8493 -7.56976 14.6577
rtibia 50.7605 0 0
rfoot -27.6509 2.06737 0
rtoes -8.29546 0 0
lowerback 7.29131 1.95374 -1.69565
upperback -3.74773 2.53866 1.30361
thorax -8.18527 1.37379 1.96455
lowerneck -3.43602 -3.91994 -6.54011
upperneck 6.9053 -5.29236 6.02499
head 3.25484 -2.60532 2.95808
lclavicle -1.30647e-14 4.96962e-16 0
lhumerus -26.5489 -1.89002 88.794
lradius 24.3179 0 0
lwrist -31.374 0 0
lhand -28.2296 30.1145 0
lfingers 7.12502 0 0
lthumb -1.6077 60.0882 0
rclavicle -1.30647e-14 4.96962e-16 0
rhumerus -32.2196 2.00376 -79.9386
rradius 30.4557 0 0
rwrist 3.12415 0 0
rhand -20.0827 -26.8213 0
rfingers 7.12502 0 0
rthumb 6.25995 -56.7088 0
207
root -2.90136 16.3049 -36.1106 3.76812 0.668804 -2.9243
lfemur -23.9057 6.7292 -8.17052
ltibia 48.6871 -0 0
lfoot -23.818 0.398184 -2.87866e-06
ltoes -9.81872 0 0
rfemur -23.8499 -7.5705 14.6571
rtibia 50.7629 -0 0
rfoot -27.6521 2.06802 -4.00416e-06
rtoes -8.29541 0 0
lowerback 7.29204 1.95373 -1.69575
upperback -3.74744 2.53863 1.30373
thorax -8.18539 1.37378 1.96472
lowerneck -3.44015 -3.91585 -6.53567
upperneck 6.90874 -5.28669 6.0205
head 3.25619 -2.60247 2.95603
lclavicle -1.30273e-14 4.98794e-16 -3.4011e-34
lhumerus -26.5494 -1.89037 88.7943
lradius 24.3182 -0 0
lwrist -31.3727 0 0
lhand -28.2296 30.115 -2.53274e-08
lfingers 7.12502 -0 0
lthumb -1.60771 60.0887 -2.44444e-08
rclavicle -1.30273e-14 4.98794e-16 -3.4011e-34
rhumerus -32.2193 2.00338 -79.9376
rradius 30.4553 -0 0
rwrist 3.12504 0 0
rhand -20.0821 -26.8206 2.26101e-06
rfingers 7.12502 -0 0
rthumb 6.26054 -56.708 2.23522e-06
208
root -2.90128 16.3044 -36.1105 3.76646 0.667905 -2.92342
lfemur -23.9067 6.72985 -8.17131
ltibia 48.6937 -0 0
lfoot -23.8216 0.399582 -1.12659e-05
ltoes -9.82161 0 0
rfemur -23.8517 -7.57268 14.6553
rtibia 50.77 -0 0
rfoot -27.6558 2.06994 -1.56707e-05
rtoes -8.29524 0 0
lowerback 7.2942 1.9537 -1.69604
upperback -3.74659 2.53856 1.30408
thorax -8.18576 1.37376 1.96521
lowerneck -3.45227 -3.90385 -6.52266
upperneck 6.91885 -5.27004 6.00733
head 3.26016 -2.59413 2.95002
lclavicle -1.29175e-14 5.0417e-16 -1.33105e-33
lhumerus -26.5507 -1.89142 88.795
lradius 24.3191 -0 0
lwrist -31.369 0 0
lhand -28.2296 30.1166 -9.91211e-08
lfingers 7.12502 -0 0
lthumb -1.60774 60.0903 -9.56651e-08
rclavicle -1.29175e-14 5.0417e-16 -1.33105e-33
rhumerus -32.2183 2.00226 -79.9346
rradius 30.4542 -0 0
rwrist 3.12766 0 0
rhand -20.0803 -26.8184 8.84865e-06
rfingers 7.12502 -0 0
rthumb 6.26227 -56.7058 8.74772e-06
209
root -2.90117 16.3038 -36.1105 3.76377 0.666444 -2.92199
lfemur -23.9084 6.73091 -8.1726
ltibia 48.7045 -0 0
lfoot -23.8274 0.401853 -2.47121e-05
ltoes -9.82631 0 0
rfemur -23.8546 -7.57622 14.6523
rtibia 50.7815 -0 0
rfoot -27.6617 2.07305 -3.43742e-05
rtoes -8.29498 0 0
lowerback 7.2977 1.95365 -1.6965
upperback -3.7452 2.53844 1.30464
thorax -8.18635 1.37373 1.966
lowerneck -3.47197 -3.88434 -6.50151
upperneck 6.93526 -5.24297 5.98593
head 3.26661 -2.58055 2.94026
lclavicle -1.27391e-14 5.12907e-16 -2.9197e-33
lhumerus -26.553 -1.89311 88.7963
lradius 24.3206 -0 0
lwrist -31.3629 0 0
lhand -28.2297 30.1191 -2.17426e-07
lfingers 7.12502 -0 0
lthumb -1.60778 60.0928 -2.09845e-07
rclavicle -1.27391e-14 5.12907e-16 -2.9197e-33
rhumerus -32.2168 2.00045 -79.9297
rradius 30.4524 -0 0
rwrist 3.13192 0 0
rhand -20.0774 -26.8148 1.94098e-05
rfingers 7.12502 -0 0
rthumb 6.26507 -56.7021 1.91885e-05
210
root -2.90101 16.3029 -36.1104 3.76009 0.664452 -2.92003
lfemur -23.9106 6.73236 -8.17435
ltibia 48.7193 -0 0
lfoot -23.8353 0.404951 -4.2681e-05
ltoes -9.83272 0 0
rfemur -23.8586 -7.58104 14.6484
rtibia 50.7973 -0 0
rfoot -27.6697 2.07729 -5.93686e-05
rtoes -8.29462 0 0
lowerback 7.30248 1.95358 -1.69714
upperback -3.74331 2.53827 1.30542
thorax -8.18716 1.37368 1.96709
lowerneck -3.49883 -3.85771 -6.47267
upperneck 6.95762 -5.20604 5.95675
head 3.27541 -2.56204 2.92694
lclavicle -1.24958e-14 5.24824e-16 -5.0427e-33
lhumerus -26.556 -1.89542 88.798
lradius 24.3226 -0 0
lwrist -31.3545 0 0
lhand -28.2297 30.1225 -3.75521e-07
lfingers 7.12502 -0 0
lthumb -1.60784 60.0962 -3.62428e-07
rclavicle -1.24958e-14 5.24824e-16 -5.0427e-33
rhumerus -32.2147 1.99797 -79.923
rradius 30.4499 -0 0
rwrist 3.13773 0 0
rhand -20.0734 -26.8099 3.35232e-05
rfingers 7.12502 -0 0
rthumb 6.2689 -56.6972 3.31409e-05
211
root -2.90081 16.3017 -36.1102 3.7555 0.661959 -2.91759
lfemur -23.9134 6.73416 -8.17655
ltibia 48.7378 -0 0
lfoot -23.8452 0.408828 -6.4567e-05
ltoes -9.84075 0 0
rfemur -23.8636 -7.58708 14.6433
rtibia 50.8169 -0 0
rfoot -27.6798 2.08261 -8.98117e-05
rtoes -8.29418 0 0
lowerback 7.30845 1.9535 -1.69794
upperback -3.74095 2.53806 1.30639
thorax -8.18817 1.37363 1.96845
lowerneck -3.53242 -3.82437 -6.4366
upperneck 6.98559 -5.1598 5.92025
head 3.28641 -2.53887 2.91028
lclavicle -1.21913e-14 5.39739e-16 -7.6285e-33
lhumerus -26.5598 -1.89831 88.8002
lradius 24.3252 -0 0
lwrist -31.3441 0 0
lhand -28.2298 30.1268 -5.68082e-07
lfingers 7.12502 -0 0
lthumb -1.60792 60.1005 -5.48275e-07
rclavicle -1.21913e-14 5.39739e-16 -7.6285e-33
rhumerus -32.2121 1.99487 -79.9146
rradius 30.4468 -0 0
rwrist 3.14499 0 0
rhand -20.0685 -26.8038 5.07134e-05
rfingers 7.12502 -0 0
rthumb 6.27369 -56.6909 5.01349e-05
212
root -2.90058 16.3003 -36.1101 3.75003 0.658995 -2.91468
lfemur -23.9167 6.73631 -8.17916
ltibia 48.7597 -0 0
lfoot -23.857 0.413437 -8.97129e-05
ltoes -9.85029 0 0
rfemur -23.8695 -7.59427 14.6374
rtibia 50.8403 -0 0
rfoot -27.6917 2.08892 -0.000124789
rtoes -8.29365 0 0
lowerback 7.31556 1.9534 -1.69889
upperback -3.73814 2.53781 1.30754
thorax -8.18937 1.37356 1.97006
lowerneck -3.57232 -3.7847 -6.39374
upperneck 7.01879 -5.10481 5.8769
head 3.29948 -2.51132 2.89047
lclavicle -1.18292e-14 5.5747e-16 -1.05994e-32
lhumerus -26.5643 -1.90174 88.8028
lradius 24.3282 -0 0
lwrist -31.3317 0 0
lhand -28.2299 30.132 -7.89323e-07
lfingers 7.12502 -0 0
lthumb -1.60801 60.1057 -7.61803e-07
rclavicle -1.18292e-14 5.5747e-16 -1.05994e-32
rhumerus -32.2091 1.99119 -79.9046
rradius 30.4432 -0 0
rwrist 3.15363 0 0
rhand -20.0626 -26.7966 7.04639e-05
rfingers 7.12502 -0 0
rthumb 6.27939 -56.6835 6.96602e-05
213
root -2.90031 16.2988 -36.1099 3.74375 0.655591 -2.91134
lfemur -23.9205 6.73878 -8.18216
ltibia 48.7849 -0 0
lfoot -23.8706 0.418732 -0.000117425
ltoes -9.86125 0 0
rfemur -23.8762 -7.60252 14.6306
rtibia 50.8672 -0 0
rfoot -27.7055 2.09618 -0.000163337
rtoes -8.29303 0 0
lowerback 7.32372 1.95329 -1.69998
upperback -3.73491 2.53752 1.30886
thorax -8.19076 1.37348 1.97191
lowerneck -3.61812 -3.7391 -6.34455
upperneck 7.05688 -5.04161 5.82714
head 3.31448 -2.47967 2.86774
lclavicle -1.14134e-14 5.77837e-16 -1.38736e-32
lhumerus -26.5695 -1.90569 88.8057
lradius 24.3316 -0 0
lwrist -31.3175 0 0
lhand -28.23 30.1378 -1.03314e-06
lfingers 7.12502 -0 0
lthumb -1.60811 60.1115 -9.97122e-07
rclavicle -1.14134e-14 5.77837e-16 -1.38736e-32
rhumerus -32.2055 1.98695 -79.8932
rradius 30.439 -0 0
rwrist 3.16356 0 0
rhand -20.0558 -26.7883 9.223e-05
rfingers 7.12502 -0 0
rthumb 6.28593 -56.675 9.1178e-05
214
root -2.9 16.297 -36.1097 3.73672 0.651778 -2.9076
lfemur -23.9248 6.74155 -8.18552
ltibia 48.8132 -0 0
lfoot -23.8857 0.424663 -0.000146989
ltoes -9.87353 0 0
rfemur -23.8838 -7.61176 14.6229
rtibia 50.8973 -0 0
rfoot -27.7209 2.10431 -0.000204459
rtoes -8.29235 0 0
lowerback 7.33287 1.95316 -1.7012
upperback -3.73129 2.5372 1.31034
thorax -8.1923 1.3734 1.97399
lowerneck -3.66938 -3.68796 -6.28948
upperneck 7.09948 -4.97076 5.77145
head 3.33127 -2.4442 2.84227
lclavicle -1.09475e-14 6.00656e-16 -1.73665e-32
lhumerus -26.5753 -1.91011 88.809
lradius 24.3355 -0 0
lwrist -31.3015 0 0
lhand -28.2301 30.1444 -1.29325e-06
lfingers 7.12502 -0 0
lthumb -1.60823 60.1181 -1.24816e-06
rclavicle -1.09475e-14 6.00656e-16 -1.73665e-32
rhumerus -32.2015 1.98221 -79.8804
rradius 30.4342 -0 0
rwrist 3.17467 0 0
rhand -20.0482 -26.779 0.00011545
rfingers 7.12502 -0 0
rthumb 6.29326 -56.6655 0.000114134
